<svg width="69" height="50" viewBox="0 0 69 50" fill="none" xmlns="http://www.w3.org/2000/svg">
<path d="M32.1228 2.18721C33.2992 0.986554 35.2323 0.986555 36.4086 2.18721L58.9445 25.189C60.8046 27.0875 59.4595 30.2885 56.8016 30.2885H11.7299C9.07193 30.2885 7.72684 27.0875 9.58696 25.189L32.1228 2.18721Z" fill="white"/>
<path d="M15.2292 30C15.2292 27.2386 17.4678 25 20.2292 25H24.5066C27.268 25 29.5066 27.2386 29.5066 30V50H20.2292C17.4678 50 15.2292 47.7614 15.2292 45V30Z" fill="white"/>
<path d="M39.0249 30C39.0249 27.2386 41.2634 25 44.0249 25H48.3023C51.0637 25 53.3023 27.2386 53.3023 30V45C53.3023 47.7614 51.0637 50 48.3023 50H39.0249V30Z" fill="white"/>
<rect x="26.6511" y="29.8077" width="14.2774" height="7.69231" fill="white"/>
</svg>
